# xmcd CD database file
#
# Track frame offsets:
#	150
#	32979
#	54808
#	61501
#	81542
#	88746
#	107836
#	118066
#	151357
#	179457
#	186013
#	209085
#	235236
#	264299
#
# Disc length: 3658 seconds
#
# Revision: 0
# Processed by: cddbd v1.5.1PL0 Copyright (c) Steve Scherf et al.
# Submitted via: CDex 1.51
#
DISCID=be0e480e
DTITLE=Carsten Daerr Trio - PurpleCoolCarSleep
DYEAR=2003
DGENRE=Jazz
TTITLE0=Dümpeln
TTITLE1=Shunyata
TTITLE2=Pygmi Up!
TTITLE3=Der Regenmann
TTITLE4=Stuffed Piano
TTITLE5=Nonen est omen
TTITLE6=Pap
TTITLE7=September
TTITLE8=Nardism
TTITLE9=PurpleCoolCarSleep
TTITLE10=Ludens Ludentis
TTITLE11=For Kenny Kirkland
TTITLE12=Standart Imitation(My Funny Valentine)
TTITLE13=Drum Afterlude
EXTD=YEAR: 2003
EXTT0=
EXTT1=
EXTT2=
EXTT3=
EXTT4=
EXTT5=
EXTT6=
EXTT7=
EXTT8=
EXTT9=
EXTT10=
EXTT11=
EXTT12=
EXTT13=
PLAYORDER=
